<mxfile host="65bd71144e">
    <diagram id="AvhnVsWtfcOy38bkL23Q" name="Page-1">
        <mxGraphModel dx="1619" dy="1141" grid="1" gridSize="10" guides="1" tooltips="1" connect="1" arrows="1" fold="1" page="0" pageScale="1" pageWidth="850" pageHeight="1100" math="0" shadow="0">
            <root>
                <mxCell id="0"/>
                <mxCell id="1" parent="0"/>
                <mxCell id="63" value="" style="rounded=0;whiteSpace=wrap;html=1;dashed=1;fontFamily=JetBrains Mono;fontSource=https%3A%2F%2Ffonts.googleapis.com%2Fcss%3Ffamily%3DJetBrains%2BMono;fontSize=8;" parent="1" vertex="1">
                    <mxGeometry x="-360" y="-80" width="1160" height="480" as="geometry"/>
                </mxCell>
                <mxCell id="64" value="" style="rounded=1;whiteSpace=wrap;html=1;arcSize=3;fillColor=#f5f5fb;strokeColor=#f5f5fb;" parent="1" vertex="1">
                    <mxGeometry x="80" y="-40" width="680" height="400" as="geometry"/>
                </mxCell>
                <mxCell id="65" value="" style="rounded=1;whiteSpace=wrap;html=1;arcSize=3;fillColor=#cdd1e6;strokeColor=#38cda9;dashed=1;" parent="1" vertex="1">
                    <mxGeometry x="120" y="80" width="600" height="240" as="geometry"/>
                </mxCell>
                <mxCell id="66" value="" style="rounded=1;whiteSpace=wrap;html=1;arcSize=7;fillColor=#f5f5fb;strokeColor=#408bff;dashed=1;" parent="1" vertex="1">
                    <mxGeometry x="211" y="240" width="469" height="40" as="geometry"/>
                </mxCell>
                <mxCell id="67" value="" style="shape=image;verticalLabelPosition=bottom;verticalAlign=top;imageAspect=0;aspect=fixed;image=data:image/svg+xml,PHN2ZyB4bWxucz0iaHR0cDovL3d3dy53My5vcmcvMjAwMC9zdmciIGZpbGw9Im5vbmUiIHZpZXdCb3g9IjAgMCAyODEgMjgxIiBoZWlnaHQ9IjI4MSIgd2lkdGg9IjI4MSI+CjxwYXRoIGZpbGw9IiMwMDAwM0MiIGQ9Ik0yMDguOTQ1IDAuNUwyMjQuODk2IDU1LjYwMzlMMjgwIDcxLjU1NTFMMjQ4LjA5OCAxMDMuNDU3TDE5Mi45OTQgODcuNTA2MkwxNzcuMDQzIDMyLjQwMjNMMjA4Ljk0NSAwLjVaIi8+CjxwYXRoIGZpbGw9IiMwMDAwM0MiIGQ9Ik0wIDIwOS40NDVMNTUuMTA0IDIyNS4zOTZMNzEuMDU1MSAyODAuNUwxMDIuOTU3IDI0OC41OThMODcuMDA2MiAxOTMuNDk0TDMxLjkwMjMgMTc3LjU0M0wwIDIwOS40NDVaIi8+CjxwYXRoIGZpbGw9IiMwMDAwM0MiIGQ9Ik0yODAuMDAyIDIwOS40NDVMMjI0Ljg5OCAyMjUuMzk2TDIwOC45NDcgMjgwLjVMMTc3LjA0NSAyNDguNTk4TDE5Mi45OTYgMTkzLjQ5NEwyNDguMSAxNzcuNTQzTDI4MC4wMDIgMjA5LjQ0NVoiLz4KPHBhdGggZmlsbD0iIzAwMDAzQyIgZD0iTTcxLjA1NDcgMC41TDU1LjEwMzUgNTUuNjAzOUwtMC4wMDA0MDQwMDggNzEuNTU1MUwzMS45MDE5IDEwMy40NTdMODcuMDA1OCA4Ny41MDYyTDEwMi45NTcgMzIuNDAyM0w3MS4wNTQ3IDAuNVoiLz4KPHBhdGggZmlsbD0iIzAwNjRGRiIgZD0iTTE0Ni4xNDMgMTgwLjVIMTA2LjE0M1YxMDAuNUgxNDYuMTQzQzE2OC4xNzIgMTAwLjUgMTg2LjE0MyAxMTguNDcxIDE4Ni4xNDMgMTQwLjVDMTg2LjE0MyAxNjIuNTI5IDE2OC4xNzIgMTgwLjUgMTQ2LjE0MyAxODAuNVoiLz4KPC9zdmc+" parent="1" vertex="1">
                    <mxGeometry x="140" y="-30" width="31" height="31" as="geometry"/>
                </mxCell>
                <mxCell id="68" style="edgeStyle=none;html=1;exitX=0.5;exitY=1;exitDx=0;exitDy=0;entryX=0.5;entryY=0;entryDx=0;entryDy=0;fontFamily=JetBrains Mono;fontSource=https%3A%2F%2Ffonts.googleapis.com%2Fcss%3Ffamily%3DJetBrains%2BMono;startArrow=none;startFill=0;endArrow=classic;endFill=1;strokeColor=#da47ff;" parent="1" source="70" target="81" edge="1">
                    <mxGeometry relative="1" as="geometry"/>
                </mxCell>
                <mxCell id="69" value="bootstrap via ssh" style="edgeLabel;html=1;align=center;verticalAlign=middle;resizable=0;points=[];fontSize=8;fontFamily=JetBrains Mono;" parent="68" vertex="1" connectable="0">
                    <mxGeometry x="-0.3259" relative="1" as="geometry">
                        <mxPoint as="offset"/>
                    </mxGeometry>
                </mxCell>
                <mxCell id="70" value="&lt;font data-font-src=&quot;https://fonts.googleapis.com/css?family=JetBrains+Mono&quot; face=&quot;JetBrains Mono&quot;&gt;jump-host&lt;/font&gt;" style="rounded=1;whiteSpace=wrap;html=1;fillColor=#38cda9;fontColor=#f5f5fb;strokeColor=#38cda9;" parent="1" vertex="1">
                    <mxGeometry x="210" y="120" width="120" height="40" as="geometry"/>
                </mxCell>
                <mxCell id="71" value="namespace: &lt;b&gt;dkp-over-dvp&lt;/b&gt;" style="text;html=1;align=center;verticalAlign=middle;resizable=0;points=[];autosize=1;strokeColor=none;fillColor=none;fontFamily=JetBrains Mono;" parent="1" vertex="1">
                    <mxGeometry x="120" y="80" width="190" height="30" as="geometry"/>
                </mxCell>
                <mxCell id="73" style="edgeStyle=none;html=1;exitX=1;exitY=0.5;exitDx=0;exitDy=0;fontFamily=JetBrains Mono;fontSource=https%3A%2F%2Ffonts.googleapis.com%2Fcss%3Ffamily%3DJetBrains%2BMono;strokeColor=#da47ff;startArrow=none;" parent="1" source="76" target="70" edge="1">
                    <mxGeometry relative="1" as="geometry"/>
                </mxCell>
                <mxCell id="74" style="edgeStyle=orthogonalEdgeStyle;html=1;exitX=1;exitY=0.25;exitDx=0;exitDy=0;entryX=0;entryY=0.75;entryDx=0;entryDy=0;fontFamily=JetBrains Mono;fontSource=https%3A%2F%2Ffonts.googleapis.com%2Fcss%3Ffamily%3DJetBrains%2BMono;startArrow=none;startFill=0;endArrow=classic;endFill=1;strokeColor=#e51601;" parent="1" source="76" target="85" edge="1">
                    <mxGeometry relative="1" as="geometry">
                        <Array as="points">
                            <mxPoint x="100" y="130"/>
                            <mxPoint x="100" y="50"/>
                        </Array>
                    </mxGeometry>
                </mxCell>
                <mxCell id="75" value="Create &lt;br&gt;master VM" style="edgeLabel;html=1;align=center;verticalAlign=middle;resizable=0;points=[];fontSize=8;fontFamily=JetBrains Mono;" parent="74" vertex="1" connectable="0">
                    <mxGeometry x="0.4355" relative="1" as="geometry">
                        <mxPoint x="-4" as="offset"/>
                    </mxGeometry>
                </mxCell>
                <mxCell id="76" value="&lt;font data-font-src=&quot;https://fonts.googleapis.com/css?family=JetBrains+Mono&quot; face=&quot;JetBrains Mono&quot;&gt;task &lt;b&gt;bootstrap&lt;/b&gt;&lt;/font&gt;" style="rounded=1;whiteSpace=wrap;html=1;fillColor=#02003e;fontColor=#f5f5fb;strokeColor=#02003e;" parent="1" vertex="1">
                    <mxGeometry x="-160" y="120" width="170" height="40" as="geometry"/>
                </mxCell>
                <mxCell id="77" style="edgeStyle=orthogonalEdgeStyle;html=1;exitX=0.75;exitY=0;exitDx=0;exitDy=0;entryX=0.5;entryY=0;entryDx=0;entryDy=0;fontFamily=JetBrains Mono;fontSource=https%3A%2F%2Ffonts.googleapis.com%2Fcss%3Ffamily%3DJetBrains%2BMono;startArrow=none;startFill=0;endArrow=classic;endFill=1;strokeColor=#da47ff;" parent="1" source="81" target="83" edge="1">
                    <mxGeometry relative="1" as="geometry">
                        <Array as="points">
                            <mxPoint x="300" y="180"/>
                            <mxPoint x="620" y="180"/>
                        </Array>
                    </mxGeometry>
                </mxCell>
                <mxCell id="78" value="bootstrap nodes" style="edgeLabel;html=1;align=center;verticalAlign=middle;resizable=0;points=[];fontSize=8;fontFamily=JetBrains Mono;" parent="77" vertex="1" connectable="0">
                    <mxGeometry x="0.3765" y="1" relative="1" as="geometry">
                        <mxPoint as="offset"/>
                    </mxGeometry>
                </mxCell>
                <mxCell id="79" style="edgeStyle=orthogonalEdgeStyle;html=1;exitX=0.75;exitY=0;exitDx=0;exitDy=0;entryX=0.5;entryY=0;entryDx=0;entryDy=0;fontFamily=JetBrains Mono;fontSource=https%3A%2F%2Ffonts.googleapis.com%2Fcss%3Ffamily%3DJetBrains%2BMono;startArrow=none;startFill=0;endArrow=classic;endFill=1;strokeColor=#da47ff;" parent="1" source="81" target="82" edge="1">
                    <mxGeometry relative="1" as="geometry">
                        <Array as="points">
                            <mxPoint x="300" y="180"/>
                            <mxPoint x="445" y="180"/>
                        </Array>
                    </mxGeometry>
                </mxCell>
                <mxCell id="81" value="&lt;font data-font-src=&quot;https://fonts.googleapis.com/css?family=JetBrains+Mono&quot; face=&quot;JetBrains Mono&quot;&gt;master&lt;br&gt;&lt;b&gt;c4r8&lt;/b&gt;&lt;br&gt;&lt;/font&gt;" style="rounded=1;whiteSpace=wrap;html=1;fillColor=#408bff;fontColor=#f5f5fb;strokeColor=#408bff;" parent="1" vertex="1">
                    <mxGeometry x="210" y="200" width="120" height="40" as="geometry"/>
                </mxCell>
                <mxCell id="82" value="&lt;font data-font-src=&quot;https://fonts.googleapis.com/css?family=JetBrains+Mono&quot; face=&quot;JetBrains Mono&quot;&gt;worker-0&lt;br&gt;&lt;b style=&quot;border-color: var(--border-color);&quot;&gt;c4r8&lt;/b&gt;&lt;/font&gt;" style="rounded=1;whiteSpace=wrap;html=1;fillColor=#408bff;fontColor=#f5f5fb;strokeColor=#408bff;" parent="1" vertex="1">
                    <mxGeometry x="385" y="200" width="120" height="40" as="geometry"/>
                </mxCell>
                <mxCell id="83" value="&lt;font data-font-src=&quot;https://fonts.googleapis.com/css?family=JetBrains+Mono&quot; face=&quot;JetBrains Mono&quot;&gt;worker-1&lt;br&gt;&lt;b style=&quot;border-color: var(--border-color);&quot;&gt;c4r8&lt;/b&gt;&lt;/font&gt;" style="rounded=1;whiteSpace=wrap;html=1;fillColor=#408bff;fontColor=#f5f5fb;strokeColor=#408bff;" parent="1" vertex="1">
                    <mxGeometry x="560" y="200" width="120" height="40" as="geometry"/>
                </mxCell>
                <mxCell id="84" style="edgeStyle=orthogonalEdgeStyle;html=1;exitX=0.5;exitY=1;exitDx=0;exitDy=0;entryX=1;entryY=0.5;entryDx=0;entryDy=0;fontFamily=JetBrains Mono;fontSource=https%3A%2F%2Ffonts.googleapis.com%2Fcss%3Ffamily%3DJetBrains%2BMono;startArrow=none;startFill=0;endArrow=classic;endFill=1;strokeColor=#e51601;" parent="1" source="85" target="81" edge="1">
                    <mxGeometry relative="1" as="geometry">
                        <Array as="points">
                            <mxPoint x="469" y="140"/>
                            <mxPoint x="360" y="140"/>
                            <mxPoint x="360" y="220"/>
                        </Array>
                    </mxGeometry>
                </mxCell>
                <mxCell id="85" value="&lt;font data-font-src=&quot;https://fonts.googleapis.com/css?family=JetBrains+Mono&quot; face=&quot;JetBrains Mono&quot;&gt;k8s API&lt;/font&gt;" style="rounded=1;whiteSpace=wrap;html=1;fillColor=#6a01ff;fontColor=#f5f5fb;strokeColor=#6a01ff;" parent="1" vertex="1">
                    <mxGeometry x="409" y="20" width="120" height="40" as="geometry"/>
                </mxCell>
                <mxCell id="86" value="DVP &lt;span&gt;cluster.local&lt;/span&gt;" style="text;html=1;align=left;verticalAlign=middle;resizable=0;points=[];autosize=1;strokeColor=none;fillColor=none;fontFamily=JetBrains Mono;fontStyle=0" parent="1" vertex="1">
                    <mxGeometry x="180" y="-29" width="150" height="30" as="geometry"/>
                </mxCell>
                <mxCell id="87" value="" style="shape=image;verticalLabelPosition=bottom;verticalAlign=top;imageAspect=0;aspect=fixed;image=data:image/svg+xml,PHN2ZyB4bWxucz0iaHR0cDovL3d3dy53My5vcmcvMjAwMC9zdmciIGZpbGw9Im5vbmUiIHZpZXdCb3g9IjAgMCAyODEgMjgxIiBoZWlnaHQ9IjI4MSIgd2lkdGg9IjI4MSI+CjxwYXRoIGZpbGw9IiMwMDAwM0MiIGQ9Ik0yMDguOTQ1IDAuNUwyMjQuODk2IDU1LjYwMzlMMjgwIDcxLjU1NTFMMjQ4LjA5OCAxMDMuNDU3TDE5Mi45OTQgODcuNTA2MkwxNzcuMDQzIDMyLjQwMjNMMjA4Ljk0NSAwLjVaIi8+CjxwYXRoIGZpbGw9IiMwMDAwM0MiIGQ9Ik0wIDIwOS40NDVMNTUuMTA0IDIyNS4zOTZMNzEuMDU1MSAyODAuNUwxMDIuOTU3IDI0OC41OThMODcuMDA2MiAxOTMuNDk0TDMxLjkwMjMgMTc3LjU0M0wwIDIwOS40NDVaIi8+CjxwYXRoIGZpbGw9IiMwMDAwM0MiIGQ9Ik0yODAuMDAyIDIwOS40NDVMMjI0Ljg5OCAyMjUuMzk2TDIwOC45NDcgMjgwLjVMMTc3LjA0NSAyNDguNTk4TDE5Mi45OTYgMTkzLjQ5NEwyNDguMSAxNzcuNTQzTDI4MC4wMDIgMjA5LjQ0NVoiLz4KPHBhdGggZmlsbD0iIzAwMDAzQyIgZD0iTTcxLjA1NDcgMC41TDU1LjEwMzUgNTUuNjAzOUwtMC4wMDA0MDQwMDggNzEuNTU1MUwzMS45MDE5IDEwMy40NTdMODcuMDA1OCA4Ny41MDYyTDEwMi45NTcgMzIuNDAyM0w3MS4wNTQ3IDAuNVoiLz4KPHBhdGggZmlsbD0iIzAwNjRGRiIgZD0iTTE0Ni4xNDMgMTgwLjVIMTA2LjE0M1YxMDAuNUgxNDYuMTQzQzE2OC4xNzIgMTAwLjUgMTg2LjE0MyAxMTguNDcxIDE4Ni4xNDMgMTQwLjVDMTg2LjE0MyAxNjIuNTI5IDE2OC4xNzIgMTgwLjUgMTQ2LjE0MyAxODAuNVoiLz4KPC9zdmc+" parent="1" vertex="1">
                    <mxGeometry x="220" y="244.5" width="31" height="31" as="geometry"/>
                </mxCell>
                <mxCell id="93" value="&lt;font style=&quot;font-size: 42px;&quot;&gt;🧑‍💻&lt;/font&gt;" style="text;html=1;align=center;verticalAlign=middle;resizable=0;points=[];autosize=1;strokeColor=none;fillColor=none;fontStyle=1;rounded=1;dashed=1;fontFamily=JetBrains Mono;fontSource=https%3A%2F%2Ffonts.googleapis.com%2Fcss%3Ffamily%3DJetBrains%2BMono;" parent="1" vertex="1">
                    <mxGeometry x="-115" y="-59" width="80" height="60" as="geometry"/>
                </mxCell>
                <mxCell id="94" style="edgeStyle=orthogonalEdgeStyle;html=1;fontFamily=JetBrains Mono;fontSource=https%3A%2F%2Ffonts.googleapis.com%2Fcss%3Ffamily%3DJetBrains%2BMono;startArrow=none;startFill=0;endArrow=classic;endFill=1;exitX=1;exitY=0.5;exitDx=0;exitDy=0;" parent="1" source="95" target="81" edge="1">
                    <mxGeometry relative="1" as="geometry">
                        <mxPoint x="90" y="220" as="sourcePoint"/>
                    </mxGeometry>
                </mxCell>
                <mxCell id="95" value="&lt;font data-font-src=&quot;https://fonts.googleapis.com/css?family=JetBrains+Mono&quot; face=&quot;JetBrains Mono&quot;&gt;task &lt;b&gt;ssh-to-master&lt;/b&gt;&lt;/font&gt;" style="rounded=1;whiteSpace=wrap;html=1;fillColor=#02003e;fontColor=#f5f5fb;strokeColor=#02003e;" parent="1" vertex="1">
                    <mxGeometry x="-160" y="200" width="170" height="40" as="geometry"/>
                </mxCell>
                <mxCell id="97" style="edgeStyle=orthogonalEdgeStyle;html=1;exitX=1;exitY=0.5;exitDx=0;exitDy=0;entryX=0;entryY=0.25;entryDx=0;entryDy=0;fontFamily=JetBrains Mono;fontSource=https%3A%2F%2Ffonts.googleapis.com%2Fcss%3Ffamily%3DJetBrains%2BMono;fontSize=8;startArrow=none;startFill=0;endArrow=classic;endFill=1;strokeColor=#38cda9;" parent="1" source="98" target="85" edge="1">
                    <mxGeometry relative="1" as="geometry"/>
                </mxCell>
                <mxCell id="98" value="&lt;font data-font-src=&quot;https://fonts.googleapis.com/css?family=JetBrains+Mono&quot; face=&quot;JetBrains Mono&quot;&gt;task &lt;b&gt;infra-deploy&lt;/b&gt;&lt;/font&gt;" style="rounded=1;whiteSpace=wrap;html=1;fillColor=#02003e;fontColor=#f5f5fb;strokeColor=#02003e;" parent="1" vertex="1">
                    <mxGeometry x="-160" y="10" width="170" height="40" as="geometry"/>
                </mxCell>
                <mxCell id="99" value="Create &lt;br&gt;NS/RBAC/Jumphost" style="text;html=1;align=left;verticalAlign=middle;resizable=0;points=[];autosize=1;strokeColor=none;fillColor=none;fontFamily=JetBrains Mono;fontSize=8;" parent="1" vertex="1">
                    <mxGeometry x="25" y="1" width="100" height="30" as="geometry"/>
                </mxCell>
                <mxCell id="100" value="&lt;font data-font-src=&quot;https://fonts.googleapis.com/css?family=JetBrains+Mono&quot; face=&quot;JetBrains Mono&quot;&gt;SA+RBAC&lt;/font&gt;" style="rounded=1;whiteSpace=wrap;html=1;fillColor=#38cda9;fontColor=#f5f5fb;strokeColor=#38cda9;" parent="1" vertex="1">
                    <mxGeometry x="610" y="120" width="70" height="40" as="geometry"/>
                </mxCell>
                <mxCell id="101" value="DKP &lt;span&gt;internal.cluster.local&lt;/span&gt;" style="text;html=1;align=left;verticalAlign=middle;resizable=0;points=[];autosize=1;strokeColor=none;fillColor=none;fontFamily=JetBrains Mono;fontStyle=0" parent="1" vertex="1">
                    <mxGeometry x="364" y="245.5" width="210" height="30" as="geometry"/>
                </mxCell>
                <mxCell id="111" value="" style="ellipse;whiteSpace=wrap;html=1;rounded=1;dashed=1;fontFamily=JetBrains Mono;fontSource=https%3A%2F%2Ffonts.googleapis.com%2Fcss%3Ffamily%3DJetBrains%2BMono;fontSize=8;fillColor=none;" parent="1" vertex="1">
                    <mxGeometry x="40" y="122.5" width="10" height="35" as="geometry"/>
                </mxCell>
                <mxCell id="113" style="edgeStyle=orthogonalEdgeStyle;html=1;exitX=1;exitY=0.5;exitDx=0;exitDy=0;entryX=0.5;entryY=1;entryDx=0;entryDy=0;" parent="1" source="112" target="98" edge="1">
                    <mxGeometry relative="1" as="geometry"/>
                </mxCell>
                <mxCell id="114" style="edgeStyle=orthogonalEdgeStyle;html=1;exitX=1;exitY=0.5;exitDx=0;exitDy=0;" parent="1" source="112" target="76" edge="1">
                    <mxGeometry relative="1" as="geometry"/>
                </mxCell>
                <mxCell id="112" value="&lt;font data-font-src=&quot;https://fonts.googleapis.com/css?family=JetBrains+Mono&quot; face=&quot;JetBrains Mono&quot;&gt;task &lt;b&gt;install&lt;/b&gt;&lt;/font&gt;" style="rounded=1;whiteSpace=wrap;html=1;fillColor=#02003e;fontColor=#f5f5fb;strokeColor=#02003e;" parent="1" vertex="1">
                    <mxGeometry x="-320" y="62.5" width="160" height="40" as="geometry"/>
                </mxCell>
                <mxCell id="115" value="&lt;font data-font-src=&quot;https://fonts.googleapis.com/css?family=JetBrains+Mono&quot; face=&quot;JetBrains Mono&quot;&gt;svc&lt;/font&gt;" style="rounded=1;whiteSpace=wrap;html=1;fillColor=#38cda9;fontColor=#f5f5fb;strokeColor=#38cda9;" vertex="1" parent="1">
                    <mxGeometry x="150" y="120" width="40" height="40" as="geometry"/>
                </mxCell>
                <mxCell id="116" value="Bootstrap" style="text;html=1;align=left;verticalAlign=middle;resizable=0;points=[];autosize=1;strokeColor=none;fillColor=none;fontFamily=JetBrains Mono;fontSize=8;" vertex="1" parent="1">
                    <mxGeometry x="25" y="100" width="70" height="20" as="geometry"/>
                </mxCell>
                <mxCell id="118" value="&lt;div style=&quot;&quot;&gt;&lt;span style=&quot;background-color: initial;&quot;&gt;Access&lt;/span&gt;&lt;/div&gt;to cluster&lt;br style=&quot;border-color: var(--border-color);&quot;&gt;via ssh" style="text;html=1;align=left;verticalAlign=middle;resizable=0;points=[];autosize=1;strokeColor=none;fillColor=none;fontFamily=JetBrains Mono;fontSize=8;" vertex="1" parent="1">
                    <mxGeometry x="25" y="180" width="70" height="40" as="geometry"/>
                </mxCell>
            </root>
        </mxGraphModel>
    </diagram>
</mxfile>
